<svg version="1.0" xmlns="http://www.w3.org/2000/svg" viewBox="0 0 340 250" color-interpolation-filters="sRGB" style="margin:auto"><rect width="100%" height="100%" fill="#fef5ef" class="background"/><rect width="100%" height="100%" fill="url(#watermark)" class="watermarklayer"/><g fill="#4e374f" class="basesvg"><path d="M102.98 133.25h5.58l12.06-21.42h.3v26.88h8.1v-42h-8.22l-14.52 26.82h-.24l-14.4-26.82h-8.1Zm-19.44 5.46h7.86v-16.5l-7.86-14.76Zm61.74-35.52v-6.48h-8.16v6.48Zm-8.16 35.52h8.1v-30h-8.1Zm15.84-34.14h68.46v-7.86h-68.46Zm47.76 5.34v28.8h8.1v-28.8Zm-16.68 11.52v-7.44h-31.08v7.44Zm-31.08 17.28h31.08v-7.92h-31.08Zm81.12-12.54V96.71h-8.16v29.46Zm-8.16 12.54h30.54v-7.92h-30.54Z" data-gra="path-name" class="tp-name"/><path d="M88.54 148.5h71.36v1H88.54zm91.56 0h71.36v1H180.1zm-14.298-2.8h-2.9v-.99h6.94v.99h-2.91v7.59h-1.13v-7.59Zm7.27 0h-2.91v-.99h6.94v.99h-2.91v7.59h-1.12v-7.59Z" data-gra="path-slogan" class="tp-slogan"/></g></svg>